<?xml version="1.0" encoding="UTF-8" standalone="no"?>
<!-- Created with Inkscape (http://www.inkscape.org/) -->

<svg
   xmlns:dc="http://purl.org/dc/elements/1.1/"
   xmlns:cc="http://creativecommons.org/ns#"
   xmlns:rdf="http://www.w3.org/1999/02/22-rdf-syntax-ns#"
   xmlns:svg="http://www.w3.org/2000/svg"
   xmlns="http://www.w3.org/2000/svg"
   xmlns:sodipodi="http://sodipodi.sourceforge.net/DTD/sodipodi-0.dtd"
   xmlns:inkscape="http://www.inkscape.org/namespaces/inkscape"
   width="186.26666mm"
   height="131.03174mm"
   viewBox="0 0 659.99999 464.28568"
   id="svg4331"
   version="1.1"
   inkscape:version="0.91 r13725"
   sodipodi:docname="222-1033 traditional culinary vector up.svg">
  <defs
     id="defs4333" />
  <sodipodi:namedview
     id="base"
     pagecolor="#ffffff"
     bordercolor="#666666"
     borderopacity="1.0"
     inkscape:pageopacity="0.0"
     inkscape:pageshadow="2"
     inkscape:zoom="0.35"
     inkscape:cx="-73.571428"
     inkscape:cy="163.57142"
     inkscape:document-units="px"
     inkscape:current-layer="layer1"
     showgrid="false"
     fit-margin-top="0"
     fit-margin-left="0"
     fit-margin-right="0"
     fit-margin-bottom="0"
     inkscape:window-width="1366"
     inkscape:window-height="706"
     inkscape:window-x="-8"
     inkscape:window-y="-8"
     inkscape:window-maximized="1" />
  <metadata
     id="metadata4336">
    <rdf:RDF>
      <cc:Work
         rdf:about="">
        <dc:format>image/svg+xml</dc:format>
        <dc:type
           rdf:resource="http://purl.org/dc/dcmitype/StillImage" />
        <dc:title></dc:title>
      </cc:Work>
    </rdf:RDF>
  </metadata>
  <g
     inkscape:label="Layer 1"
     inkscape:groupmode="layer"
     id="layer1"
     transform="translate(-12.857142,-231.64792)">
    <g
       id="g5073">
      <rect
         ry="0"
         y="231.64792"
         x="12.857142"
         height="464.28571"
         width="660"
         id="rect4401"
         style="opacity:1;fill:#ffffff;fill-opacity:1;fill-rule:evenodd;stroke:none;stroke-width:1;stroke-miterlimit:4;stroke-dasharray:1, 1;stroke-dashoffset:0;stroke-opacity:0.99479167" />
      <rect
         transform="matrix(-0.70710678,0.70710678,0.70710678,0.70710678,0,0)"
         style="opacity:1;fill:#424242;fill-opacity:1;fill-rule:evenodd;stroke:none;stroke-width:1;stroke-miterlimit:4;stroke-dasharray:1, 1;stroke-dashoffset:0;stroke-opacity:0.99479167"
         id="rect4169"
         width="11.472011"
         height="59.143703"
         x="164.7225"
         y="689.36737"
         ry="1.9798914" />
      <rect
         style="opacity:1;fill:#bcaaa4;fill-opacity:1;fill-rule:evenodd;stroke:none;stroke-width:1;stroke-miterlimit:4;stroke-dasharray:1, 1;stroke-dashoffset:0;stroke-opacity:0.99479167"
         id="rect6727"
         width="160.45897"
         height="34.775925"
         x="56.187157"
         y="410.00046"
         ry="0.17834032" />
      <rect
         ry="0.21978299"
         y="251.40646"
         x="55.177002"
         height="42.857143"
         width="356.42856"
         id="rect6725"
         style="opacity:1;fill:#ffb300;fill-opacity:1;fill-rule:evenodd;stroke:none;stroke-width:1;stroke-miterlimit:4;stroke-dasharray:1, 1;stroke-dashoffset:0;stroke-opacity:0.99479167" />
      <path
         style="fill:#ff9955;fill-rule:evenodd;stroke:none;stroke-width:0.91097486px;stroke-linecap:butt;stroke-linejoin:miter;stroke-opacity:1"
         d="m 481.65143,438.81727 -11.01817,3.27942 -6.2961,9.29166 2.62337,4.37256 3.54156,-0.27328 11.93636,0.13663 -0.39351,-5.19239 1.96751,-0.54659 3.54157,-7.78859 z"
         id="path4637"
         inkscape:connector-curvature="0" />
      <path
         style="fill:#ff9955;fill-rule:evenodd;stroke:none;stroke-width:0.91097486px;stroke-linecap:butt;stroke-linejoin:miter;stroke-opacity:1"
         d="m 537.72492,372.70258 -8.25495,30.25243 -51.74671,39.02036 7.27431,4.38793 50.02666,-18.24984 c 2.2488,-1.14583 9.27155,-6.50204 10.95083,-8.21738 l 13.86973,-37.94141 z"
         id="path4635"
         inkscape:connector-curvature="0"
         sodipodi:nodetypes="cccccccc" />
      <ellipse
         ry="14.975972"
         rx="98.843956"
         cy="661.27045"
         cx="547.08936"
         id="path4629"
         style="opacity:1;fill:#90a4ae;fill-opacity:1;fill-rule:evenodd;stroke:none;stroke-width:1;stroke-miterlimit:4;stroke-dasharray:1, 1;stroke-dashoffset:0;stroke-opacity:0.99479167" />
      <path
         sodipodi:nodetypes="cccccc"
         inkscape:connector-curvature="0"
         id="path4551-0"
         d="m 564.02987,311.0658 2.53664,18.73646 -24.67159,8.71298 7.65275,-8.7846 -1.06941,-14.17512 z"
         style="fill:#ffb380;fill-rule:evenodd;stroke:none;stroke-width:0.91097486px;stroke-linecap:butt;stroke-linejoin:miter;stroke-opacity:1" />
      <path
         sodipodi:nodetypes="cccccccccccc"
         inkscape:connector-curvature="0"
         id="path4539-5"
         d="m 587.74722,446.76893 1.82428,13.26491 -4.23065,11.65512 c -2.51288,27.07049 -2.70051,54.47314 0.4296,82.34977 l 34.5206,66.15272 3.92411,2.79512 c 6.55793,7.50159 -2.7232,11.33212 -10.98676,13.58581 l -49.53379,-64.61258 -6.62277,-15.15126 -8.40891,-52.79602 -5.43844,-41.94114 z"
         style="fill:#4d4d4d;fill-rule:evenodd;stroke:none;stroke-width:0.91097486px;stroke-linecap:butt;stroke-linejoin:miter;stroke-opacity:1" />
      <rect
         inkscape:export-ydpi="91"
         inkscape:export-xdpi="91"
         ry="4.278255"
         y="438.92477"
         x="50.376366"
         height="146.31633"
         width="365.25113"
         id="rect4147"
         style="opacity:1;fill:#ffb300;fill-opacity:1;fill-rule:evenodd;stroke:none;stroke-width:1;stroke-miterlimit:4;stroke-dasharray:1, 1;stroke-dashoffset:0;stroke-opacity:0.99479167" />
      <rect
         ry="0.56369525"
         y="418.24231"
         x="286.5069"
         height="27.527683"
         width="100.32311"
         id="rect4173"
         style="opacity:1;fill:#90a4ae;fill-opacity:1;fill-rule:evenodd;stroke:none;stroke-width:1;stroke-miterlimit:4;stroke-dasharray:1, 1;stroke-dashoffset:0;stroke-opacity:0.99479167" />
      <path
         sodipodi:nodetypes="ccccc"
         inkscape:connector-curvature="0"
         id="path6694"
         d="m 229.85945,376.72589 16.21596,0 c 5.12662,23.34591 5.22185,46.92522 5.41813,70.03772 l -24.33827,0 c -1.31968,-25.39992 -0.6765,-46.10243 2.70418,-70.03772 z"
         style="fill:#f44336;fill-rule:evenodd;stroke:none;stroke-width:1px;stroke-linecap:butt;stroke-linejoin:miter;stroke-opacity:1" />
      <rect
         style="opacity:1;fill:#a05a2c;fill-opacity:1;fill-rule:evenodd;stroke:none;stroke-width:1;stroke-miterlimit:4;stroke-dasharray:1, 1;stroke-dashoffset:0;stroke-opacity:0.99479167"
         id="rect4149"
         width="365.25113"
         height="15.092719"
         x="50.376366"
         y="438.92477"
         ry="0.44130757" />
      <rect
         ry="1.5022572"
         y="583.16968"
         x="371.24915"
         height="55.318657"
         width="14.823398"
         id="rect4167"
         style="opacity:1;fill:#424242;fill-opacity:1;fill-rule:evenodd;stroke:none;stroke-width:1;stroke-miterlimit:4;stroke-dasharray:1, 1;stroke-dashoffset:0;stroke-opacity:0.99479167" />
      <rect
         ry="0.39423403"
         y="572.61401"
         x="50.376366"
         height="13.482805"
         width="365.25113"
         id="rect4151"
         style="opacity:1;fill:#a05a2c;fill-opacity:1;fill-rule:evenodd;stroke:none;stroke-width:1;stroke-miterlimit:4;stroke-dasharray:1, 1;stroke-dashoffset:0;stroke-opacity:0.99479167" />
      <path
         inkscape:connector-curvature="0"
         id="path4153"
         d="m 155.89672,507.37616 a 86.42075,86.42075 0 0 0 -86.422785,86.42042 86.42075,86.42075 0 0 0 86.422785,86.42276 86.42075,86.42075 0 0 0 86.4204,-86.42276 86.42075,86.42075 0 0 0 -86.4204,-86.42042 z m 0,14.97389 a 71.446851,71.446851 0 0 1 71.44651,71.44653 71.446851,71.446851 0 0 1 -71.44651,71.44887 71.446851,71.446851 0 0 1 -71.448892,-71.44887 71.446851,71.446851 0 0 1 71.448892,-71.44653 z"
         style="opacity:1;fill:#424242;fill-opacity:1;fill-rule:evenodd;stroke:none;stroke-width:1;stroke-miterlimit:4;stroke-dasharray:1, 1;stroke-dashoffset:0;stroke-opacity:0.99479167" />
      <circle
         r="17.11302"
         cy="593.79767"
         cx="155.89566"
         id="path4158"
         style="opacity:1;fill:#424242;fill-opacity:0.63128489;fill-rule:evenodd;stroke:none;stroke-width:1;stroke-miterlimit:4;stroke-dasharray:1, 1;stroke-dashoffset:0;stroke-opacity:0.99479167" />
      <circle
         style="opacity:1;fill:#424242;fill-opacity:1;fill-rule:evenodd;stroke:none;stroke-width:1;stroke-miterlimit:4;stroke-dasharray:1, 1;stroke-dashoffset:0;stroke-opacity:0.99479167"
         id="circle4160"
         cx="155.89566"
         cy="593.79767"
         r="12.193027" />
      <rect
         ry="0.3765429"
         y="443.16006"
         x="395.77731"
         height="12.877767"
         width="96.24781"
         id="rect4171"
         style="opacity:1;fill:#a05a2c;fill-opacity:1;fill-rule:evenodd;stroke:none;stroke-width:1;stroke-miterlimit:4;stroke-dasharray:1, 1;stroke-dashoffset:0;stroke-opacity:0.99479167" />
      <rect
         ry="0.56369525"
         y="411.20743"
         x="283.14236"
         height="16.516611"
         width="106.74625"
         id="rect4175"
         style="opacity:1;fill:#78909c;fill-opacity:1;fill-rule:evenodd;stroke:none;stroke-width:1;stroke-miterlimit:4;stroke-dasharray:1, 1;stroke-dashoffset:0;stroke-opacity:0.99479167" />
      <rect
         ry="0.47624886"
         y="515.50574"
         x="153.00455"
         height="156.58412"
         width="5.7819419"
         id="rect4232"
         style="opacity:1;fill:#424242;fill-opacity:1;fill-rule:evenodd;stroke:none;stroke-width:1;stroke-miterlimit:4;stroke-dasharray:1, 1;stroke-dashoffset:0;stroke-opacity:0.99479167" />
      <rect
         transform="matrix(0,1,-1,0,0,0)"
         style="opacity:1;fill:#424242;fill-opacity:1;fill-rule:evenodd;stroke:none;stroke-width:1;stroke-miterlimit:4;stroke-dasharray:1, 1;stroke-dashoffset:0;stroke-opacity:0.99479167"
         id="rect4240"
         width="5.7819419"
         height="156.58412"
         x="590.90686"
         y="-234.18756"
         ry="0.47624886" />
      <rect
         ry="0.47624886"
         y="-608.40521"
         x="306.75269"
         height="156.58412"
         width="5.7819419"
         id="rect4242"
         style="opacity:1;fill:#424242;fill-opacity:1;fill-rule:evenodd;stroke:none;stroke-width:1;stroke-miterlimit:4;stroke-dasharray:1, 1;stroke-dashoffset:0;stroke-opacity:0.99479167"
         transform="matrix(-0.70710678,0.70710678,-0.70710678,-0.70710678,0,0)" />
      <rect
         transform="matrix(-0.70710678,-0.70710678,0.70710678,-0.70710678,0,0)"
         style="opacity:1;fill:#424242;fill-opacity:1;fill-rule:evenodd;stroke:none;stroke-width:1;stroke-miterlimit:4;stroke-dasharray:1, 1;stroke-dashoffset:0;stroke-opacity:0.99479167"
         id="rect4244"
         width="5.7819419"
         height="156.58412"
         x="-533.00409"
         y="-387.9357"
         ry="0.47624886" />
      <rect
         ry="0.47624886"
         y="-387.9357"
         x="-533.00409"
         height="156.58412"
         width="5.7819419"
         id="rect4246"
         style="opacity:1;fill:#424242;fill-opacity:1;fill-rule:evenodd;stroke:none;stroke-width:1;stroke-miterlimit:4;stroke-dasharray:1, 1;stroke-dashoffset:0;stroke-opacity:0.99479167"
         transform="matrix(-0.70710678,-0.70710678,0.70710678,-0.70710678,0,0)" />
      <path
         sodipodi:nodetypes="ccccccccccccc"
         inkscape:connector-curvature="0"
         id="path4537-3"
         d="m 539.10749,454.26049 -25.51324,86.98279 -0.75975,18.39347 0,87.16905 3.76697,2.22547 9.52588,0.15268 1.12168,2.9622 4.08403,-1.02867 8.85243,-87.48215 3.03899,-15.19461 35.09118,-69.18262 2.32573,-33.18104 z"
         style="fill:#808080;fill-rule:evenodd;stroke:none;stroke-width:0.91097486px;stroke-linecap:butt;stroke-linejoin:miter;stroke-opacity:1" />
      <path
         sodipodi:nodetypes="cccccccc"
         inkscape:connector-curvature="0"
         id="path4541-1"
         d="m 622.58076,621.5295 c -0.24137,9.53474 -4.07177,12.14135 -11.42917,14.27496 -0.47999,3.68459 -0.33581,6.08686 -1.003,8.50602 -2.87138,5.72481 -5.98117,10.14996 -15.19236,13.00615 -0.63409,2.08963 -0.63323,5.0425 -1.37106,7.02506 21.94616,0.67961 31.14967,-18.24352 41.13961,-32.6057 -3.13544,-4.14724 -4.18225,-6.24474 -12.14397,-10.20649 z"
         style="fill:#784421;fill-rule:evenodd;stroke:none;stroke-width:0.91097486px;stroke-linecap:butt;stroke-linejoin:miter;stroke-opacity:1" />
      <path
         sodipodi:nodetypes="cccscc"
         inkscape:connector-curvature="0"
         id="path4543-4"
         d="m 569.05595,322.92077 c -16.083,4.9867 -8.04096,11.06603 -27.20158,14.26875 -17.67943,44.48427 -1.67971,99.86618 -13.04674,127.18826 1.47358,1.74382 19.22456,10.64093 21.30076,10.64677 31.65891,0.0891 27.08703,3.26754 42.41756,-15.22063 -17.90224,-40.18512 0.38754,-93.58551 -23.47,-136.88315 z"
         style="fill:#8d6e63;fill-rule:evenodd;stroke:none;stroke-width:0.91097486px;stroke-linecap:butt;stroke-linejoin:miter;stroke-opacity:1" />
      <path
         sodipodi:nodetypes="cccccccc"
         inkscape:connector-curvature="0"
         id="path4547-2"
         d="m 543.2314,374.16844 -12.29557,34.92439 -51.74671,34.3484 7.27432,4.38794 50.02666,-18.24985 c 2.24879,-1.14583 9.27155,-6.50203 10.95082,-8.21737 l 13.86973,-37.94141 z"
         style="fill:#ffb380;fill-rule:evenodd;stroke:none;stroke-width:0.91097486px;stroke-linecap:butt;stroke-linejoin:miter;stroke-opacity:1" />
      <path
         sodipodi:nodetypes="cccccc"
         inkscape:connector-curvature="0"
         id="path4545-3"
         d="m 562.21821,338.9151 c -4.5585,-0.45631 -9.11699,0.7002 -13.67549,4.7983 l -11.39623,34.38779 27.35097,19.99291 8.35724,-42.38498 c -1.36415,-6.96135 -4.71067,-12.68371 -10.63649,-16.79402 z"
         style="fill:#6d4c41;fill-rule:evenodd;stroke:none;stroke-width:0.91097486px;stroke-linecap:butt;stroke-linejoin:miter;stroke-opacity:1" />
      <path
         inkscape:connector-curvature="0"
         id="path4549-1"
         d="m 483.1173,440.28314 -11.01817,3.27941 -6.29611,9.29166 2.62337,4.37256 3.54156,-0.27328 11.93636,0.13664 -0.39351,-5.1924 1.96752,-0.54658 3.54157,-7.7886 z"
         style="fill:#ffb380;fill-rule:evenodd;stroke:none;stroke-width:0.91097486px;stroke-linecap:butt;stroke-linejoin:miter;stroke-opacity:1" />
      <path
         sodipodi:nodetypes="ccccccccccsccc"
         inkscape:connector-curvature="0"
         id="path4553-6"
         d="m 533.87084,291.31104 c -0.19552,3.22411 0.92306,4.65357 1.66254,6.60082 -1.50939,4.40315 -2.34678,8.34742 -2.85007,12.06355 l 4.0376,0.45523 -0.71253,4.09706 2.13757,3.64184 c -0.99976,2.09054 -2.14997,4.2572 -0.95003,5.23514 7.52101,2.59718 15.04204,0.45522 22.56306,0.68283 l 6.41267,-9.78742 1.42501,-19.80246 c 0,0 -5.25742,-8.23541 -6.44497,-8.46303 -1.18752,-0.22763 -17.52697,-4.99248 -17.52697,-4.99248 l -10.13663,6.62708 z"
         style="fill:#ffb380;fill-rule:evenodd;stroke:none;stroke-width:0.91097486px;stroke-linecap:butt;stroke-linejoin:miter;stroke-opacity:1" />
      <path
         sodipodi:nodetypes="cccccccccccccc"
         inkscape:connector-curvature="0"
         id="path4555-4"
         d="m 540.54685,282.62929 c -3.9978,3.5288 -7.80941,5.64567 -6.54302,9.17448 l 11.7423,-1.17559 4.15751,4.30877 c 0.88606,-0.0828 1.72592,9.12211 2.50906,9.11864 0.67426,-0.002 1.30649,-9.22618 1.88995,-9.15281 4.42205,0.5561 6.04313,3.53981 1.93754,12.50219 l 1.38515,0.0291 1.80286,0.0379 2.53528,6.89352 4.86361,9.09507 c 1.2229,-4.7638 3.54382,-17.52146 4.86427,-35.9708 -2.05149,-1.54873 -1.09364,-4.67168 -3.84337,-3.99552 -10.27992,-5.84589 -16.37096,-1.23535 -27.30114,-0.86496 z"
         style="fill:#424242;fill-rule:evenodd;stroke:none;stroke-width:0.91097486px;stroke-linecap:butt;stroke-linejoin:miter;stroke-opacity:1" />
      <path
         sodipodi:nodetypes="ccccc"
         inkscape:connector-curvature="0"
         id="path4557-2"
         d="m 536.2095,313.36545 c 5.34433,-1.00399 11.61482,-2.53647 11.61482,-2.53647 -3.00045,2.8944 -6.10027,5.63045 -10.094,6.94222 l -1.74101,-3.22549 z"
         style="fill:#ffffff;fill-rule:evenodd;stroke:none;stroke-width:0.91097486px;stroke-linecap:butt;stroke-linejoin:miter;stroke-opacity:1" />
      <path
         sodipodi:nodetypes="cc"
         inkscape:connector-curvature="0"
         id="path4559-3"
         d="m 537.67094,295.97713 c 2.79291,-1.36778 5.72251,-2.27694 9.14397,-1.53641"
         style="fill:none;fill-rule:evenodd;stroke:#000000;stroke-width:1.30204237px;stroke-linecap:butt;stroke-linejoin:miter;stroke-opacity:1" />
      <ellipse
         ry="1.5363982"
         rx="1.7516055"
         cy="297.91187"
         cx="540.66949"
         id="path4561-3"
         style="opacity:1;fill:#1a1a1a;fill-opacity:1;fill-rule:evenodd;stroke:none;stroke-width:1;stroke-miterlimit:4;stroke-dasharray:1, 1;stroke-dashoffset:0;stroke-opacity:0.99479167" />
      <path
         sodipodi:nodetypes="ccccccc"
         inkscape:connector-curvature="0"
         id="path4541-1-9"
         d="m 531.92981,644.20429 c -7.12531,6.34031 -12.15109,4.75741 -18.73703,0.84474 -4.5475,3.383 -4.9505,5.82357 -11.27474,5.73046 -5.98729,0.98919 -11.89179,0.94238 -18.4492,1.2942 -2.342,0.71311 -3.3206,5.28143 -4.0055,6.54698 21.19898,4.20621 37.07362,6.38372 53.61404,4.07038 0.88455,-5.12328 1.40179,-9.96708 -1.14757,-18.48676 z"
         style="fill:#784421;fill-rule:evenodd;stroke:none;stroke-width:0.91097486px;stroke-linecap:butt;stroke-linejoin:miter;stroke-opacity:1" />
      <rect
         ry="0.44130757"
         y="242.95515"
         x="27.142857"
         height="15.092719"
         width="564.25122"
         id="rect6628"
         style="opacity:1;fill:#a05a2c;fill-opacity:1;fill-rule:evenodd;stroke:none;stroke-width:1;stroke-miterlimit:4;stroke-dasharray:1, 1;stroke-dashoffset:0;stroke-opacity:0.99479167" />
      <rect
         style="opacity:1;fill:#a05a2c;fill-opacity:1;fill-rule:evenodd;stroke:none;stroke-width:1;stroke-miterlimit:4;stroke-dasharray:1, 1;stroke-dashoffset:0;stroke-opacity:0.99479167"
         id="rect6630"
         width="10.965415"
         height="338.0618"
         x="50.376366"
         y="247.17929"
         ry="9.8848476" />
      <rect
         ry="9.8848476"
         y="247.17929"
         x="404.66208"
         height="338.0618"
         width="10.965415"
         id="rect6632"
         style="opacity:1;fill:#a05a2c;fill-opacity:1;fill-rule:evenodd;stroke:none;stroke-width:1;stroke-miterlimit:4;stroke-dasharray:1, 1;stroke-dashoffset:0;stroke-opacity:0.99479167" />
      <path
         inkscape:connector-curvature="0"
         id="path4153-7"
         d="m 403.13546,614.53373 a 29.852757,29.852757 0 0 0 -29.85345,29.85264 29.852757,29.852757 0 0 0 29.85345,29.85345 29.852757,29.852757 0 0 0 29.85264,-29.85345 29.852757,29.852757 0 0 0 -29.85264,-29.85264 z m 0,5.1725 a 24.680248,24.680248 0 0 1 24.68013,24.68014 24.680248,24.680248 0 0 1 -24.68013,24.68094 24.680248,24.680248 0 0 1 -24.68095,-24.68094 24.680248,24.680248 0 0 1 24.68095,-24.68014 z"
         style="opacity:1;fill:#424242;fill-opacity:1;fill-rule:evenodd;stroke:none;stroke-width:1;stroke-miterlimit:4;stroke-dasharray:1, 1;stroke-dashoffset:0;stroke-opacity:0.99479167" />
      <circle
         r="5.911437"
         cy="644.38678"
         cx="403.1351"
         id="path4158-6"
         style="opacity:1;fill:#424242;fill-opacity:0.63128489;fill-rule:evenodd;stroke:none;stroke-width:1;stroke-miterlimit:4;stroke-dasharray:1, 1;stroke-dashoffset:0;stroke-opacity:0.99479167" />
      <circle
         style="opacity:1;fill:#424242;fill-opacity:1;fill-rule:evenodd;stroke:none;stroke-width:1;stroke-miterlimit:4;stroke-dasharray:1, 1;stroke-dashoffset:0;stroke-opacity:0.99479167"
         id="circle4160-6"
         cx="403.1351"
         cy="644.38678"
         r="4.2118988" />
      <rect
         ry="0.16451305"
         y="617.34198"
         x="402.13641"
         height="54.089645"
         width="1.9972855"
         id="rect4232-6"
         style="opacity:1;fill:#424242;fill-opacity:1;fill-rule:evenodd;stroke:none;stroke-width:1;stroke-miterlimit:4;stroke-dasharray:1, 1;stroke-dashoffset:0;stroke-opacity:0.99479167" />
      <rect
         transform="matrix(0,1,-1,0,0,0)"
         style="opacity:1;fill:#424242;fill-opacity:1;fill-rule:evenodd;stroke:none;stroke-width:1;stroke-miterlimit:4;stroke-dasharray:1, 1;stroke-dashoffset:0;stroke-opacity:0.99479167"
         id="rect4240-8"
         width="1.9972855"
         height="54.089645"
         x="643.38818"
         y="-430.17987"
         ry="0.16451305" />
      <rect
         ry="0.16451305"
         y="-767.75458"
         x="169.5921"
         height="54.089645"
         width="1.9972855"
         id="rect4242-1"
         style="opacity:1;fill:#424242;fill-opacity:1;fill-rule:evenodd;stroke:none;stroke-width:1;stroke-miterlimit:4;stroke-dasharray:1, 1;stroke-dashoffset:0;stroke-opacity:0.99479167"
         transform="matrix(-0.70710678,0.70710678,-0.70710678,-0.70710678,0,0)" />
      <rect
         transform="matrix(-0.70710678,-0.70710678,0.70710678,-0.70710678,0,0)"
         style="opacity:1;fill:#424242;fill-opacity:1;fill-rule:evenodd;stroke:none;stroke-width:1;stroke-miterlimit:4;stroke-dasharray:1, 1;stroke-dashoffset:0;stroke-opacity:0.99479167"
         id="rect4244-2"
         width="1.9972855"
         height="54.089645"
         x="-741.70837"
         y="-197.63556"
         ry="0.16451305" />
      <rect
         ry="0.16451305"
         y="-197.63556"
         x="-741.70837"
         height="54.089645"
         width="1.9972855"
         id="rect4246-4"
         style="opacity:1;fill:#424242;fill-opacity:1;fill-rule:evenodd;stroke:none;stroke-width:1;stroke-miterlimit:4;stroke-dasharray:1, 1;stroke-dashoffset:0;stroke-opacity:0.99479167"
         transform="matrix(-0.70710678,-0.70710678,0.70710678,-0.70710678,0,0)" />
      <rect
         style="opacity:1;fill:#a05a2c;fill-opacity:1;fill-rule:evenodd;stroke:none;stroke-width:1;stroke-miterlimit:4;stroke-dasharray:1, 1;stroke-dashoffset:0;stroke-opacity:0.99479167"
         id="rect6670"
         width="359.96552"
         height="10.092719"
         x="52.14286"
         y="290.81232"
         ry="0.29510874" />
      <path
         sodipodi:nodetypes="ccccc"
         inkscape:connector-curvature="0"
         id="path6672"
         d="m 283.6005,412.4779 106.07143,0 -50.71429,-36.7537 c -2.16307,-1.56435 -4.50429,-1.84961 -7.14286,0 z"
         style="fill:#78909c;fill-opacity:1;fill-rule:evenodd;stroke:none;stroke-width:1px;stroke-linecap:butt;stroke-linejoin:miter;stroke-opacity:1" />
      <path
         inkscape:connector-curvature="0"
         id="path6674"
         d="m 335.60719,362.95497 a 11.301082,11.301082 0 0 0 -11.30078,11.30078 11.301082,11.301082 0 0 0 11.30078,11.30078 11.301082,11.301082 0 0 0 11.30079,-11.30078 11.301082,11.301082 0 0 0 -11.30079,-11.30078 z m 0.0898,2.5 a 8.8903675,8.8903675 0 0 1 8.89062,8.88867 8.8903675,8.8903675 0 0 1 -8.89062,8.89063 8.8903675,8.8903675 0 0 1 -8.89063,-8.89063 8.8903675,8.8903675 0 0 1 8.89063,-8.88867 z"
         style="opacity:1;fill:#78909c;fill-opacity:1;fill-rule:evenodd;stroke:none;stroke-width:1;stroke-miterlimit:4;stroke-dasharray:1, 1;stroke-dashoffset:0;stroke-opacity:0.99479167" />
      <path
         inkscape:connector-curvature="0"
         id="path6679"
         d="m 287.35329,408.8922 -2.42188,2.31445 103.3418,0 -2.5332,-2.30078 -98.25,0 c -0.0468,0 -0.0906,-0.0111 -0.13672,-0.0137 z"
         style="fill:#90a4ae;fill-opacity:1;fill-rule:evenodd;stroke:none;stroke-width:1px;stroke-linecap:butt;stroke-linejoin:miter;stroke-opacity:1" />
      <rect
         ry="5.9165936"
         y="247.17929"
         x="210.3528"
         height="202.34752"
         width="10.965415"
         id="rect6688"
         style="opacity:1;fill:#a05a2c;fill-opacity:1;fill-rule:evenodd;stroke:none;stroke-width:1;stroke-miterlimit:4;stroke-dasharray:1, 1;stroke-dashoffset:0;stroke-opacity:0.99479167" />
      <rect
         transform="scale(-1,1)"
         style="opacity:1;fill:#a05a2c;fill-opacity:1;fill-rule:evenodd;stroke:none;stroke-width:1;stroke-miterlimit:4;stroke-dasharray:1, 1;stroke-dashoffset:0;stroke-opacity:0.99479167"
         id="rect6690"
         width="6.9248047"
         height="50.445831"
         x="-263.47116"
         y="399.08099"
         ry="1.4750241" />
      <rect
         transform="matrix(0,1,1,0,0,0)"
         ry="1.4196429"
         y="213.38326"
         x="399.18637"
         height="48.551796"
         width="6.9248047"
         id="rect6692"
         style="opacity:1;fill:#a05a2c;fill-opacity:1;fill-rule:evenodd;stroke:none;stroke-width:1;stroke-miterlimit:4;stroke-dasharray:1, 1;stroke-dashoffset:0;stroke-opacity:0.99479167" />
      <path
         inkscape:connector-curvature="0"
         id="path6696"
         d="m 232.12661,377.46313 1.11712,-4.99929 9.33487,0 1.22965,5.73653 z"
         style="fill:#f44336;fill-rule:evenodd;stroke:none;stroke-width:1px;stroke-linecap:butt;stroke-linejoin:miter;stroke-opacity:1" />
      <path
         sodipodi:nodetypes="ccccc"
         inkscape:connector-curvature="0"
         id="path6698"
         d="m 236.0461,373.0397 0.69168,-5.89792 1.84447,0 0.61482,5.89792 z"
         style="fill:#f44336;fill-rule:evenodd;stroke:none;stroke-width:1px;stroke-linecap:butt;stroke-linejoin:miter;stroke-opacity:1" />
      <path
         inkscape:connector-curvature="0"
         id="path6700"
         d="m 229.85837,376.72546 16.08559,0.0651 0.27171,0.91229 -16.52033,0.0651 z"
         style="fill:#d32f2f;fill-rule:evenodd;stroke:none;stroke-width:1px;stroke-linecap:butt;stroke-linejoin:miter;stroke-opacity:1" />
      <path
         inkscape:connector-curvature="0"
         id="path6702"
         d="m 233.24097,372.48676 9.31841,-0.0231 0.15372,0.78332 -9.62583,0.046 z"
         style="fill:#d32f2f;fill-rule:evenodd;stroke:none;stroke-width:1px;stroke-linecap:butt;stroke-linejoin:miter;stroke-opacity:1" />
      <path
         inkscape:connector-curvature="0"
         id="path6704"
         d="m 236.73778,367.15329 1.82526,0 0.0769,0.69117 -1.97895,0.0115 z"
         style="fill:#d32f2f;fill-rule:evenodd;stroke:none;stroke-width:1px;stroke-linecap:butt;stroke-linejoin:miter;stroke-opacity:1" />
      <rect
         ry="0.21978289"
         y="406.59988"
         x="50.376366"
         height="7.5165749"
         width="165.24092"
         id="rect6721"
         style="opacity:1;fill:#a05a2c;fill-opacity:1;fill-rule:evenodd;stroke:none;stroke-width:1;stroke-miterlimit:4;stroke-dasharray:1, 1;stroke-dashoffset:0;stroke-opacity:0.99479167" />
      <circle
         r="6.3392854"
         cy="426.49576"
         cx="134.19487"
         id="path6723"
         style="opacity:1;fill:#784421;fill-opacity:1;fill-rule:evenodd;stroke:none;stroke-width:1;stroke-miterlimit:4;stroke-dasharray:1, 1;stroke-dashoffset:0;stroke-opacity:0.99479167" />
      <circle
         style="opacity:1;fill:#a05a2c;fill-opacity:1;fill-rule:evenodd;stroke:none;stroke-width:1;stroke-miterlimit:4;stroke-dasharray:1, 1;stroke-dashoffset:0;stroke-opacity:0.99479167"
         id="circle6729"
         cx="133.65916"
         cy="427.03146"
         r="4.7321429" />
      <path
         sodipodi:nodetypes="ccccccc"
         inkscape:connector-curvature="0"
         id="path6731"
         d="m 74.920031,406.46955 31.490179,0 3.16941,-4.28572 8.81301,-4.58688 -54.373271,0 8.319701,4.67617 z"
         style="fill:#90a4ae;fill-opacity:1;fill-rule:evenodd;stroke:none;stroke-width:1px;stroke-linecap:butt;stroke-linejoin:miter;stroke-opacity:1" />
      <path
         style="fill:#90a4ae;fill-opacity:1;fill-rule:evenodd;stroke:none;stroke-width:1px;stroke-linecap:butt;stroke-linejoin:miter;stroke-opacity:1"
         d="m 74.920031,398.61241 31.490179,0 3.16941,-4.28572 8.81301,-4.58688 -54.373271,0 8.319701,4.67617 z"
         id="path6735"
         inkscape:connector-curvature="0"
         sodipodi:nodetypes="ccccccc" />
      <path
         sodipodi:nodetypes="ccccccc"
         inkscape:connector-curvature="0"
         id="path6737"
         d="m 74.920031,390.93384 31.490179,0 3.16941,-4.28572 8.81301,-4.58688 -54.373271,0 8.319701,4.67617 z"
         style="fill:#90a4ae;fill-opacity:1;fill-rule:evenodd;stroke:none;stroke-width:1px;stroke-linecap:butt;stroke-linejoin:miter;stroke-opacity:1" />
      <path
         style="fill:#90a4ae;fill-opacity:1;fill-rule:evenodd;stroke:none;stroke-width:1px;stroke-linecap:butt;stroke-linejoin:miter;stroke-opacity:1"
         d="m 74.920031,383.43384 31.490179,0 3.16941,-4.28572 8.81301,-4.58688 -54.373271,0 8.319701,4.67617 z"
         id="path6739"
         inkscape:connector-curvature="0"
         sodipodi:nodetypes="ccccccc" />
      <path
         sodipodi:nodetypes="ccccccc"
         inkscape:connector-curvature="0"
         id="path6741"
         d="m 74.920031,375.5767 31.490179,0 3.16941,-4.28572 8.81301,-4.58688 -54.373271,0 8.319701,4.67617 z"
         style="fill:#90a4ae;fill-opacity:1;fill-rule:evenodd;stroke:none;stroke-width:1px;stroke-linecap:butt;stroke-linejoin:miter;stroke-opacity:1" />
      <path
         style="fill:#90a4ae;fill-opacity:1;fill-rule:evenodd;stroke:none;stroke-width:1px;stroke-linecap:butt;stroke-linejoin:miter;stroke-opacity:1"
         d="m 74.920031,367.89813 31.490179,0 3.16941,-4.28572 8.81301,-4.58688 -54.373271,0 8.319701,4.67617 z"
         id="path6743"
         inkscape:connector-curvature="0"
         sodipodi:nodetypes="ccccccc" />
      <path
         sodipodi:nodetypes="ccccccc"
         inkscape:connector-curvature="0"
         id="path6745"
         d="m 74.920031,360.39813 31.490179,0 3.16941,-4.28572 8.81301,-4.58688 -54.373271,0 8.319701,4.67617 z"
         style="fill:#90a4ae;fill-opacity:1;fill-rule:evenodd;stroke:none;stroke-width:1px;stroke-linecap:butt;stroke-linejoin:miter;stroke-opacity:1" />
      <path
         inkscape:connector-curvature="0"
         id="rect6751"
         d="m 140.51238,370.00353 c -1.25357,0.60546 -2.12109,1.87681 -2.12109,3.36718 l 0,28.57227 c 0,2.07737 1.67263,3.75 3.75,3.75 l 49.28516,0 c 2.07737,0 3.75,-1.67263 3.75,-3.75 l 0,-28.57227 c 0,-1.37227 -0.73782,-2.55549 -1.83204,-3.20898 a 31.946074,2.3991122 0 0 1 -25.70117,0.97851 31.946074,2.3991122 0 0 1 -27.13086,-1.13671 z"
         style="opacity:1;fill:#90a4ae;fill-opacity:1;fill-rule:evenodd;stroke:none;stroke-width:1;stroke-miterlimit:4;stroke-dasharray:1, 1;stroke-dashoffset:0;stroke-opacity:0.99479167" />
      <rect
         transform="matrix(-0.52256909,0.85259694,0.91137839,0.41156946,0,0)"
         style="opacity:1;fill:#90a4ae;fill-opacity:1;fill-rule:evenodd;stroke:none;stroke-width:1;stroke-miterlimit:4;stroke-dasharray:1, 1;stroke-dashoffset:0;stroke-opacity:0.99479167"
         id="rect4169-8"
         width="2.6223688"
         height="18.056883"
         x="284.69446"
         y="305.24323"
         ry="0.49036047" />
      <rect
         ry="0.49036047"
         y="18.403439"
         x="423.15909"
         height="18.056883"
         width="2.6223688"
         id="rect6768"
         style="opacity:1;fill:#90a4ae;fill-opacity:1;fill-rule:evenodd;stroke:none;stroke-width:1;stroke-miterlimit:4;stroke-dasharray:1, 1;stroke-dashoffset:0;stroke-opacity:0.99479167"
         transform="matrix(0.52256909,0.85259694,-0.91137839,0.41156946,0,0)" />
      <rect
         ry="0.88388342"
         y="310.98062"
         x="200.67529"
         height="41.405148"
         width="2.4331486"
         id="rect4338"
         style="opacity:1;fill:#90a4ae;fill-opacity:1;fill-rule:evenodd;stroke:none;stroke-width:1;stroke-miterlimit:4;stroke-dasharray:1, 1;stroke-dashoffset:0;stroke-opacity:0.99479167" />
      <rect
         style="opacity:1;fill:#90a4ae;fill-opacity:1;fill-rule:evenodd;stroke:none;stroke-width:1;stroke-miterlimit:4;stroke-dasharray:1, 1;stroke-dashoffset:0;stroke-opacity:0.99479167"
         id="rect4340"
         width="1.2453725"
         height="6.1371913"
         x="204.51698"
         y="310.98062"
         ry="0.41928464" />
      <rect
         ry="0.430246"
         y="310.98236"
         x="201.58327"
         height="1.3343827"
         width="3.5937564"
         id="rect4342"
         style="opacity:1;fill:#90a4ae;fill-opacity:1;fill-rule:evenodd;stroke:none;stroke-width:1;stroke-miterlimit:4;stroke-dasharray:1, 1;stroke-dashoffset:0;stroke-opacity:0.99479167" />
      <path
         sodipodi:nodetypes="ccc"
         inkscape:connector-curvature="0"
         id="path4344"
         d="m 202.31409,347.65646 c 4.131,7.98876 -5.23103,15.8167 -12.46512,8.61951 z"
         style="fill:#90a4ae;fill-rule:evenodd;stroke:none;stroke-width:1px;stroke-linecap:butt;stroke-linejoin:miter;stroke-opacity:1" />
      <rect
         ry="0.430246"
         y="313.10291"
         x="203.79309"
         height="1.7857143"
         width="7.7232141"
         id="rect4346"
         style="opacity:1;fill:#a05a2c;fill-opacity:1;fill-rule:evenodd;stroke:none;stroke-width:1;stroke-miterlimit:4;stroke-dasharray:1, 1;stroke-dashoffset:0;stroke-opacity:0.99479167" />
      <rect
         ry="0.37405714"
         y="295.33505"
         x="388.3913"
         height="31.071428"
         width="2.2321429"
         id="rect4348"
         style="opacity:1;fill:#90a4ae;fill-opacity:1;fill-rule:evenodd;stroke:none;stroke-width:1;stroke-miterlimit:4;stroke-dasharray:1, 1;stroke-dashoffset:0;stroke-opacity:0.99479167" />
      <rect
         style="opacity:1;fill:#90a4ae;fill-opacity:1;fill-rule:evenodd;stroke:none;stroke-width:1;stroke-miterlimit:4;stroke-dasharray:1, 1;stroke-dashoffset:0;stroke-opacity:0.99479167"
         id="rect4350"
         width="2.5"
         height="41.607143"
         x="373.3913"
         y="295.33505"
         ry="0.37405714" />
      <path
         sodipodi:nodetypes="ccccc"
         inkscape:connector-curvature="0"
         id="path4353"
         d="m 373.33556,335.65891 0.10143,6.18759 c 5.34557,0.52812 3.88263,-21.91568 3.89957,-23.739 l -2.61204,-1.64149 z"
         style="fill:#90a4ae;fill-rule:evenodd;stroke:none;stroke-width:1px;stroke-linecap:butt;stroke-linejoin:miter;stroke-opacity:1" />
      <rect
         ry="0.37405699"
         y="324.17435"
         x="386.33774"
         height="5.1785712"
         width="6.5178571"
         id="rect4355"
         style="opacity:1;fill:#90a4ae;fill-opacity:1;fill-rule:evenodd;stroke:none;stroke-width:1;stroke-miterlimit:4;stroke-dasharray:1, 1;stroke-dashoffset:0;stroke-opacity:0.99479167" />
      <rect
         ry="0.37405699"
         y="327.74576"
         x="386.33774"
         height="4.1964288"
         width="1.1607143"
         id="rect4360"
         style="opacity:1;fill:#90a4ae;fill-opacity:1;fill-rule:evenodd;stroke:none;stroke-width:1;stroke-miterlimit:4;stroke-dasharray:1, 1;stroke-dashoffset:0;stroke-opacity:0.99479167" />
      <rect
         style="opacity:1;fill:#90a4ae;fill-opacity:1;fill-rule:evenodd;stroke:none;stroke-width:1;stroke-miterlimit:4;stroke-dasharray:1, 1;stroke-dashoffset:0;stroke-opacity:0.99479167"
         id="rect4362"
         width="1.1607143"
         height="4.1964288"
         x="391.65024"
         y="327.74576"
         ry="0.37405699" />
      <rect
         ry="0.97095644"
         y="327.74576"
         x="388.12344"
         height="10.892858"
         width="1.1607143"
         id="rect4365"
         style="opacity:1;fill:#90a4ae;fill-opacity:1;fill-rule:evenodd;stroke:none;stroke-width:1;stroke-miterlimit:4;stroke-dasharray:1, 1;stroke-dashoffset:0;stroke-opacity:0.99479167" />
      <rect
         style="opacity:1;fill:#90a4ae;fill-opacity:1;fill-rule:evenodd;stroke:none;stroke-width:1;stroke-miterlimit:4;stroke-dasharray:1, 1;stroke-dashoffset:0;stroke-opacity:0.99479167"
         id="rect4367"
         width="1.1607143"
         height="10.892858"
         x="389.9538"
         y="327.74576"
         ry="0.97095644" />
      <circle
         r="0.66964287"
         cy="297.07611"
         cx="389.55203"
         id="path4371"
         style="opacity:1;fill:#784421;fill-opacity:1;fill-rule:evenodd;stroke:none;stroke-width:1;stroke-miterlimit:4;stroke-dasharray:1, 1;stroke-dashoffset:0;stroke-opacity:0.99479167" />
      <circle
         style="opacity:1;fill:#784421;fill-opacity:1;fill-rule:evenodd;stroke:none;stroke-width:1;stroke-miterlimit:4;stroke-dasharray:1, 1;stroke-dashoffset:0;stroke-opacity:0.99479167"
         id="circle4373"
         cx="374.59668"
         cy="297.07611"
         r="0.66964287" />
      <circle
         r="3.9285715"
         cy="644.35291"
         cx="403.23251"
         id="path4380"
         style="opacity:1;fill:#333333;fill-opacity:1;fill-rule:evenodd;stroke:none;stroke-width:1;stroke-miterlimit:4;stroke-dasharray:1, 1;stroke-dashoffset:0;stroke-opacity:0.99479167" />
      <circle
         style="opacity:1;fill:#424242;fill-opacity:1;fill-rule:evenodd;stroke:none;stroke-width:1;stroke-miterlimit:4;stroke-dasharray:1, 1;stroke-dashoffset:0;stroke-opacity:0.99479167"
         id="circle4382"
         cx="403.21674"
         cy="644.3371"
         r="2.523828" />
      <path
         sodipodi:nodetypes="cccsc"
         inkscape:connector-curvature="0"
         id="path4395"
         d="m 533.55065,292.57074 c 31.82083,-2.16786 23.67531,9.25434 35.59497,20.65188 10.40939,-21.2553 3.50104,-24.6393 7.73568,-32.86957 -19.16505,-9.28976 -38.23575,-4.04423 -43.65217,6.46503 -0.94703,1.83749 -0.0718,3.64835 0.32152,5.75266 z"
         style="fill:#ff5722;fill-rule:evenodd;stroke:none;stroke-width:1px;stroke-linecap:butt;stroke-linejoin:miter;stroke-opacity:1" />
      <ellipse
         ry="2.9910715"
         rx="2.8125"
         cy="308.5047"
         cx="573.12335"
         id="path4397"
         style="opacity:1;fill:#ff5722;fill-opacity:1;fill-rule:evenodd;stroke:none;stroke-width:1;stroke-miterlimit:4;stroke-dasharray:1, 1;stroke-dashoffset:0;stroke-opacity:0.99479167" />
      <path
         inkscape:connector-curvature="0"
         id="path4399"
         d="m 574.95379,307.96896 c 1.5625,-1.02678 3.79465,-2.85714 3.79465,-2.85714 l 7.85714,1.42857 -6.60714,2.1875 -4.59822,-0.0893 3.39286,0.84821 3.75,5.3125 -6.11607,-2.94643 -2.41072,-2.58928 z"
         style="fill:#ff5722;fill-rule:evenodd;stroke:none;stroke-width:1px;stroke-linecap:butt;stroke-linejoin:miter;stroke-opacity:1" />
    </g>
  </g>
</svg>
